<svg width="45" height="61" viewBox="0 0 45 61" fill="none" xmlns="http://www.w3.org/2000/svg">
<path d="M38.88 33.5405H38.8939C38.8939 33.5405 33.6429 41.0937 29.2275 46.7073C25.4111 51.5561 24.2968 55.7083 23.9764 57.7161C23.8511 58.4537 23.2382 59 22.5 59C21.7618 59 21.1489 58.4537 21.0236 57.7161C20.7032 55.7083 19.5889 51.5561 15.7725 46.7073C15.1875 45.9561 14.5886 45.1776 13.9897 44.3854L28.4057 27.5854L40.0082 14.0907C41.2896 16.7268 42 19.6771 42 22.8049C42 26.7659 40.8439 30.44 38.88 33.5405Z" fill="#8696BB"/>
<path d="M28.4057 27.5854L13.9896 44.3854C10.0618 39.2224 6.10606 33.5405 6.10606 33.5405H6.11999C5.70214 32.8849 5.32606 32.2156 5.00571 31.519L16.5943 18.0244C15.4939 19.3219 14.8393 20.9883 14.8393 22.8049C14.8393 26.9571 18.2657 30.3171 22.5 30.3171C24.8818 30.3171 27.0128 29.2517 28.4057 27.5854Z" fill="#8696BB"/>
<path d="M28.6286 4.01073L16.6918 17.9151L7.55466 10.1024C11.1204 5.75902 16.4968 3 22.5 3C24.645 3 26.7064 3.35512 28.6286 4.01073Z" fill="#8696BB"/>
<path d="M16.6918 17.9151L16.5943 18.0244L5.00571 31.519C3.72428 28.8829 3 25.9327 3 22.8049C3 17.9698 4.71321 13.5307 7.55464 10.1024L16.6918 17.9151Z" fill="#8696BB"/>
<path d="M28.4057 27.5853C29.5061 26.2878 30.1607 24.6214 30.1607 22.8049C30.1607 18.6527 26.7343 15.2927 22.5 15.2927C20.1182 15.2927 17.9872 16.358 16.5943 18.0244L28.6286 4.01071C33.6289 5.67705 37.7239 9.3512 40.0082 14.0907L28.4057 27.5853Z" fill="#8696BB"/>
<circle cx="22.5" cy="22.5" r="16" fill="white" stroke="white"/>
</svg>
